<?xml version="1.0" encoding="UTF-8"?>
<svg xmlns="http://www.w3.org/2000/svg" xmlns:xlink="http://www.w3.org/1999/xlink" width="460.799988pt" height="345.600006pt" viewBox="0 0 460.799988 345.600006" version="1.1">
<defs>
<clipPath id="clip1">
  <path d="M 73 52 L 400 52 L 400 297 L 73 297 Z M 73 52 "/>
</clipPath>
</defs>
<g id="surface1">
<path style=" stroke:none;fill-rule:nonzero;fill:rgb(100%,100%,100%);fill-opacity:1;" d="M 0 0 L 460.800781 0 L 460.800781 345.601562 L 0 345.601562 Z M 0 0 "/>
<path style=" stroke:none;fill-rule:nonzero;fill:rgb(100%,100%,100%);fill-opacity:1;" d="M 57.601562 41.472656 L 414.71875 41.472656 L 414.71875 307.585938 L 57.601562 307.585938 Z M 57.601562 41.472656 "/>
<path style="fill:none;stroke-width:0.8;stroke-linecap:butt;stroke-linejoin:round;stroke:rgb(0%,0%,0%);stroke-opacity:1;stroke-miterlimit:4;" d="M 73.832031 50.111725 L 73.832031 46.611725 " transform="matrix(1,0,0,-1,0,345.600006)"/>
<path style=" stroke:none;fill-rule:nonzero;fill:rgb(0%,0%,0%);fill-opacity:1;" d="M 59.570312 306.535156 L 65.828125 306.535156 L 65.828125 307.367188 L 59.570312 307.367188 Z M 59.570312 306.535156 "/>
<path style=" stroke:none;fill-rule:nonzero;fill:rgb(0%,0%,0%);fill-opacity:1;" d="M 68.128906 309.257812 L 69.742188 309.257812 L 69.742188 303.695312 L 67.988281 304.046875 L 67.988281 303.148438 L 69.730469 302.796875 L 70.71875 302.796875 L 70.71875 309.257812 L 72.328125 309.257812 L 72.328125 310.085938 L 68.128906 310.085938 Z M 68.128906 309.257812 "/>
<path style=" stroke:none;fill-rule:nonzero;fill:rgb(0%,0%,0%);fill-opacity:1;" d="M 76.429688 303.445312 C 75.921875 303.445312 75.539062 303.695312 75.285156 304.195312 C 75.027344 304.695312 74.902344 305.445312 74.902344 306.449219 C 74.902344 307.449219 75.027344 308.199219 75.285156 308.699219 C 75.539062 309.199219 75.921875 309.449219 76.429688 309.449219 C 76.941406 309.449219 77.324219 309.199219 77.578125 308.699219 C 77.835938 308.199219 77.964844 307.449219 77.964844 306.449219 C 77.964844 305.445312 77.835938 304.695312 77.578125 304.195312 C 77.324219 303.695312 76.941406 303.445312 76.429688 303.445312 M 76.429688 302.664062 C 77.246094 302.664062 77.871094 302.988281 78.304688 303.636719 C 78.734375 304.28125 78.949219 305.21875 78.949219 306.449219 C 78.949219 307.675781 78.734375 308.613281 78.304688 309.261719 C 77.871094 309.90625 77.246094 310.230469 76.429688 310.230469 C 75.613281 310.230469 74.988281 309.90625 74.558594 309.261719 C 74.125 308.613281 73.910156 307.675781 73.910156 306.449219 C 73.910156 305.21875 74.125 304.28125 74.558594 303.636719 C 74.988281 302.988281 75.613281 302.664062 76.429688 302.664062 "/>
<path style=" stroke:none;fill-rule:nonzero;fill:rgb(0%,0%,0%);fill-opacity:1;" d="M 80.683594 308.847656 L 81.714844 308.847656 L 81.714844 310.085938 L 80.683594 310.085938 Z M 80.683594 308.847656 "/>
<path style=" stroke:none;fill-rule:nonzero;fill:rgb(0%,0%,0%);fill-opacity:1;" d="M 85.96875 303.445312 C 85.464844 303.445312 85.082031 303.695312 84.824219 304.195312 C 84.570312 304.695312 84.441406 305.445312 84.441406 306.449219 C 84.441406 307.449219 84.570312 308.199219 84.824219 308.699219 C 85.082031 309.199219 85.464844 309.449219 85.96875 309.449219 C 86.480469 309.449219 86.863281 309.199219 87.121094 308.699219 C 87.375 308.199219 87.503906 307.449219 87.503906 306.449219 C 87.503906 305.445312 87.375 304.695312 87.121094 304.195312 C 86.863281 303.695312 86.480469 303.445312 85.96875 303.445312 M 85.96875 302.664062 C 86.789062 302.664062 87.414062 302.988281 87.84375 303.636719 C 88.273438 304.28125 88.492188 305.21875 88.492188 306.449219 C 88.492188 307.675781 88.273438 308.613281 87.84375 309.261719 C 87.414062 309.90625 86.789062 310.230469 85.96875 310.230469 C 85.152344 310.230469 84.53125 309.90625 84.097656 309.261719 C 83.667969 308.613281 83.453125 307.675781 83.453125 306.449219 C 83.453125 305.21875 83.667969 304.28125 84.097656 303.636719 C 84.53125 302.988281 85.152344 302.664062 85.96875 302.664062 "/>
<path style="fill:none;stroke-width:0.8;stroke-linecap:butt;stroke-linejoin:round;stroke:rgb(0%,0%,0%);stroke-opacity:1;stroke-miterlimit:4;" d="M 114.617188 50.111725 L 114.617188 46.611725 " transform="matrix(1,0,0,-1,0,345.600006)"/>
<path style=" stroke:none;fill-rule:nonzero;fill:rgb(0%,0%,0%);fill-opacity:1;" d="M 103.535156 306.535156 L 109.796875 306.535156 L 109.796875 307.367188 L 103.535156 307.367188 Z M 103.535156 306.535156 "/>
<path style=" stroke:none;fill-rule:nonzero;fill:rgb(0%,0%,0%);fill-opacity:1;" d="M 111.675781 302.796875 L 116.363281 302.796875 L 116.363281 303.214844 L 113.71875 310.085938 L 112.6875 310.085938 L 115.179688 303.628906 L 111.675781 303.628906 Z M 111.675781 302.796875 "/>
<path style=" stroke:none;fill-rule:nonzero;fill:rgb(0%,0%,0%);fill-opacity:1;" d="M 118.285156 308.847656 L 119.316406 308.847656 L 119.316406 310.085938 L 118.285156 310.085938 Z M 118.285156 308.847656 "/>
<path style=" stroke:none;fill-rule:nonzero;fill:rgb(0%,0%,0%);fill-opacity:1;" d="M 121.476562 302.796875 L 125.347656 302.796875 L 125.347656 303.628906 L 122.378906 303.628906 L 122.378906 305.414062 C 122.523438 305.363281 122.664062 305.328125 122.808594 305.304688 C 122.953125 305.28125 123.09375 305.269531 123.238281 305.269531 C 124.050781 305.269531 124.695312 305.492188 125.171875 305.9375 C 125.648438 306.382812 125.886719 306.984375 125.886719 307.746094 C 125.886719 308.53125 125.640625 309.140625 125.152344 309.578125 C 124.664062 310.011719 123.976562 310.230469 123.085938 310.230469 C 122.78125 310.230469 122.46875 310.203125 122.152344 310.152344 C 121.835938 310.097656 121.507812 310.019531 121.167969 309.917969 L 121.167969 308.925781 C 121.460938 309.082031 121.765625 309.203125 122.078125 309.28125 C 122.390625 309.359375 122.71875 309.398438 123.066406 309.398438 C 123.628906 309.398438 124.078125 309.25 124.40625 308.953125 C 124.734375 308.65625 124.898438 308.253906 124.898438 307.746094 C 124.898438 307.238281 124.734375 306.839844 124.40625 306.542969 C 124.078125 306.246094 123.628906 306.097656 123.066406 306.097656 C 122.804688 306.097656 122.539062 306.125 122.277344 306.183594 C 122.015625 306.242188 121.75 306.335938 121.476562 306.457031 Z M 121.476562 302.796875 "/>
<path style="fill:none;stroke-width:0.8;stroke-linecap:butt;stroke-linejoin:round;stroke:rgb(0%,0%,0%);stroke-opacity:1;stroke-miterlimit:4;" d="M 155.402344 50.111725 L 155.402344 46.611725 " transform="matrix(1,0,0,-1,0,345.600006)"/>
<path style=" stroke:none;fill-rule:nonzero;fill:rgb(0%,0%,0%);fill-opacity:1;" d="M 144.320312 306.535156 L 150.582031 306.535156 L 150.582031 307.367188 L 144.320312 307.367188 Z M 144.320312 306.535156 "/>
<path style=" stroke:none;fill-rule:nonzero;fill:rgb(0%,0%,0%);fill-opacity:1;" d="M 152.722656 302.796875 L 156.59375 302.796875 L 156.59375 303.628906 L 153.625 303.628906 L 153.625 305.414062 C 153.765625 305.363281 153.910156 305.328125 154.050781 305.304688 C 154.195312 305.28125 154.339844 305.269531 154.484375 305.269531 C 155.296875 305.269531 155.941406 305.492188 156.417969 305.9375 C 156.894531 306.382812 157.128906 306.984375 157.128906 307.746094 C 157.128906 308.53125 156.886719 309.140625 156.398438 309.578125 C 155.910156 310.011719 155.222656 310.230469 154.332031 310.230469 C 154.027344 310.230469 153.714844 310.203125 153.394531 310.152344 C 153.078125 310.097656 152.753906 310.019531 152.414062 309.917969 L 152.414062 308.925781 C 152.707031 309.082031 153.007812 309.203125 153.320312 309.28125 C 153.632812 309.359375 153.964844 309.398438 154.3125 309.398438 C 154.875 309.398438 155.320312 309.25 155.648438 308.953125 C 155.980469 308.65625 156.144531 308.253906 156.144531 307.746094 C 156.144531 307.238281 155.980469 306.839844 155.648438 306.542969 C 155.320312 306.246094 154.875 306.097656 154.3125 306.097656 C 154.046875 306.097656 153.785156 306.125 153.523438 306.183594 C 153.261719 306.242188 152.996094 306.335938 152.722656 306.457031 Z M 152.722656 302.796875 "/>
<path style=" stroke:none;fill-rule:nonzero;fill:rgb(0%,0%,0%);fill-opacity:1;" d="M 159.074219 308.847656 L 160.105469 308.847656 L 160.105469 310.085938 L 159.074219 310.085938 Z M 159.074219 308.847656 "/>
<path style=" stroke:none;fill-rule:nonzero;fill:rgb(0%,0%,0%);fill-opacity:1;" d="M 164.359375 303.445312 C 163.855469 303.445312 163.472656 303.695312 163.214844 304.195312 C 162.960938 304.695312 162.832031 305.445312 162.832031 306.449219 C 162.832031 307.449219 162.960938 308.199219 163.214844 308.699219 C 163.472656 309.199219 163.855469 309.449219 164.359375 309.449219 C 164.871094 309.449219 165.253906 309.199219 165.511719 308.699219 C 165.765625 308.199219 165.894531 307.449219 165.894531 306.449219 C 165.894531 305.445312 165.765625 304.695312 165.511719 304.195312 C 165.253906 303.695312 164.871094 303.445312 164.359375 303.445312 M 164.359375 302.664062 C 165.179688 302.664062 165.804688 302.988281 166.234375 303.636719 C 166.664062 304.28125 166.882812 305.21875 166.882812 306.449219 C 166.882812 307.675781 166.664062 308.613281 166.234375 309.261719 C 165.804688 309.90625 165.179688 310.230469 164.359375 310.230469 C 163.542969 310.230469 162.921875 309.90625 162.488281 309.261719 C 162.058594 308.613281 161.84375 307.675781 161.84375 306.449219 C 161.84375 305.21875 162.058594 304.28125 162.488281 303.636719 C 162.921875 302.988281 163.542969 302.664062 164.359375 302.664062 "/>
<path style="fill:none;stroke-width:0.8;stroke-linecap:butt;stroke-linejoin:round;stroke:rgb(0%,0%,0%);stroke-opacity:1;stroke-miterlimit:4;" d="M 196.191406 50.111725 L 196.191406 46.611725 " transform="matrix(1,0,0,-1,0,345.600006)"/>
<path style=" stroke:none;fill-rule:nonzero;fill:rgb(0%,0%,0%);fill-opacity:1;" d="M 185.109375 306.535156 L 191.367188 306.535156 L 191.367188 307.367188 L 185.109375 307.367188 Z M 185.109375 306.535156 "/>
<path style=" stroke:none;fill-rule:nonzero;fill:rgb(0%,0%,0%);fill-opacity:1;" d="M 194.347656 309.257812 L 197.789062 309.257812 L 197.789062 310.085938 L 193.160156 310.085938 L 193.160156 309.257812 C 193.535156 308.871094 194.042969 308.347656 194.691406 307.699219 C 195.335938 307.042969 195.742188 306.621094 195.910156 306.433594 C 196.222656 306.078125 196.445312 305.777344 196.570312 305.535156 C 196.695312 305.289062 196.757812 305.046875 196.757812 304.808594 C 196.757812 304.421875 196.621094 304.105469 196.351562 303.863281 C 196.078125 303.617188 195.726562 303.496094 195.289062 303.496094 C 194.980469 303.496094 194.652344 303.546875 194.308594 303.65625 C 193.964844 303.761719 193.597656 303.925781 193.207031 304.144531 L 193.207031 303.148438 C 193.605469 302.988281 193.976562 302.867188 194.320312 302.785156 C 194.667969 302.707031 194.984375 302.664062 195.269531 302.664062 C 196.023438 302.664062 196.625 302.855469 197.074219 303.230469 C 197.523438 303.609375 197.75 304.113281 197.75 304.746094 C 197.75 305.042969 197.691406 305.328125 197.582031 305.597656 C 197.46875 305.863281 197.265625 306.179688 196.96875 306.546875 C 196.886719 306.640625 196.628906 306.914062 196.191406 307.363281 C 195.757812 307.816406 195.140625 308.445312 194.347656 309.257812 "/>
<path style=" stroke:none;fill-rule:nonzero;fill:rgb(0%,0%,0%);fill-opacity:1;" d="M 199.859375 308.847656 L 200.890625 308.847656 L 200.890625 310.085938 L 199.859375 310.085938 Z M 199.859375 308.847656 "/>
<path style=" stroke:none;fill-rule:nonzero;fill:rgb(0%,0%,0%);fill-opacity:1;" d="M 203.046875 302.796875 L 206.921875 302.796875 L 206.921875 303.628906 L 203.953125 303.628906 L 203.953125 305.414062 C 204.09375 305.363281 204.238281 305.328125 204.378906 305.304688 C 204.523438 305.28125 204.667969 305.269531 204.8125 305.269531 C 205.625 305.269531 206.269531 305.492188 206.742188 305.9375 C 207.21875 306.382812 207.457031 306.984375 207.457031 307.746094 C 207.457031 308.53125 207.214844 309.140625 206.726562 309.578125 C 206.234375 310.011719 205.546875 310.230469 204.660156 310.230469 C 204.351562 310.230469 204.039062 310.203125 203.722656 310.152344 C 203.40625 310.097656 203.078125 310.019531 202.742188 309.917969 L 202.742188 308.925781 C 203.03125 309.082031 203.335938 309.203125 203.648438 309.28125 C 203.960938 309.359375 204.289062 309.398438 204.640625 309.398438 C 205.203125 309.398438 205.648438 309.25 205.976562 308.953125 C 206.304688 308.65625 206.46875 308.253906 206.46875 307.746094 C 206.46875 307.238281 206.304688 306.839844 205.976562 306.542969 C 205.648438 306.246094 205.203125 306.097656 204.640625 306.097656 C 204.375 306.097656 204.113281 306.125 203.851562 306.183594 C 203.589844 306.242188 203.320312 306.335938 203.046875 306.457031 Z M 203.046875 302.796875 "/>
<path style="fill:none;stroke-width:0.8;stroke-linecap:butt;stroke-linejoin:round;stroke:rgb(0%,0%,0%);stroke-opacity:1;stroke-miterlimit:4;" d="M 236.976562 50.111725 L 236.976562 46.611725 " transform="matrix(1,0,0,-1,0,345.600006)"/>
<path style=" stroke:none;fill-rule:nonzero;fill:rgb(0%,0%,0%);fill-opacity:1;" d="M 249.742188 303.445312 C 249.234375 303.445312 248.855469 303.695312 248.597656 304.195312 C 248.34375 304.695312 248.214844 305.445312 248.214844 306.449219 C 248.214844 307.449219 248.34375 308.199219 248.597656 308.699219 C 248.855469 309.199219 249.234375 309.449219 249.742188 309.449219 C 250.253906 309.449219 250.636719 309.199219 250.894531 308.699219 C 251.148438 308.199219 251.277344 307.449219 251.277344 306.449219 C 251.277344 305.445312 251.148438 304.695312 250.894531 304.195312 C 250.636719 303.695312 250.253906 303.445312 249.742188 303.445312 M 249.742188 302.664062 C 250.5625 302.664062 251.183594 302.988281 251.617188 303.636719 C 252.046875 304.28125 252.261719 305.21875 252.261719 306.449219 C 252.261719 307.675781 252.046875 308.613281 251.617188 309.261719 C 251.183594 309.90625 250.5625 310.230469 249.742188 310.230469 C 248.925781 310.230469 248.300781 309.90625 247.871094 309.261719 C 247.441406 308.613281 247.222656 307.675781 247.222656 306.449219 C 247.222656 305.21875 247.441406 304.28125 247.871094 303.636719 C 248.300781 302.988281 248.925781 302.664062 249.742188 302.664062 "/>
<path style="fill:none;stroke-width:0.8;stroke-linecap:butt;stroke-linejoin:round;stroke:rgb(0%,0%,0%);stroke-opacity:1;stroke-miterlimit:4;" d="M 277.761719 50.111725 L 277.761719 46.611725 " transform="matrix(1,0,0,-1,0,345.600006)"/>
<path style=" stroke:none;fill-rule:nonzero;fill:rgb(0%,0%,0%);fill-opacity:1;" d="M 271.730469 309.257812 L 275.171875 309.257812 L 275.171875 310.085938 L 270.542969 310.085938 L 270.542969 309.257812 C 270.917969 308.871094 271.425781 308.347656 272.074219 307.699219 C 272.71875 307.042969 273.125 306.621094 273.292969 306.433594 C 273.605469 306.078125 273.828125 305.777344 273.953125 305.535156 C 274.078125 305.289062 274.140625 305.046875 274.140625 304.808594 C 274.140625 304.421875 274.003906 304.105469 273.734375 303.863281 C 273.460938 303.617188 273.105469 303.496094 272.671875 303.496094 C 272.363281 303.496094 272.035156 303.546875 271.691406 303.65625 C 271.347656 303.761719 270.980469 303.925781 270.589844 304.144531 L 270.589844 303.148438 C 270.988281 302.988281 271.359375 302.867188 271.703125 302.785156 C 272.050781 302.707031 272.367188 302.664062 272.652344 302.664062 C 273.40625 302.664062 274.007812 302.855469 274.457031 303.230469 C 274.90625 303.609375 275.132812 304.113281 275.132812 304.746094 C 275.132812 305.042969 275.074219 305.328125 274.964844 305.597656 C 274.851562 305.863281 274.648438 306.179688 274.351562 306.546875 C 274.269531 306.640625 274.011719 306.914062 273.574219 307.363281 C 273.136719 307.816406 272.523438 308.445312 271.730469 309.257812 "/>
<path style=" stroke:none;fill-rule:nonzero;fill:rgb(0%,0%,0%);fill-opacity:1;" d="M 277.242188 308.847656 L 278.273438 308.847656 L 278.273438 310.085938 L 277.242188 310.085938 Z M 277.242188 308.847656 "/>
<path style=" stroke:none;fill-rule:nonzero;fill:rgb(0%,0%,0%);fill-opacity:1;" d="M 280.429688 302.796875 L 284.300781 302.796875 L 284.300781 303.628906 L 281.332031 303.628906 L 281.332031 305.414062 C 281.476562 305.363281 281.621094 305.328125 281.761719 305.304688 C 281.90625 305.28125 282.050781 305.269531 282.191406 305.269531 C 283.007812 305.269531 283.652344 305.492188 284.125 305.9375 C 284.601562 306.382812 284.839844 306.984375 284.839844 307.746094 C 284.839844 308.53125 284.597656 309.140625 284.105469 309.578125 C 283.617188 310.011719 282.929688 310.230469 282.042969 310.230469 C 281.734375 310.230469 281.421875 310.203125 281.105469 310.152344 C 280.789062 310.097656 280.460938 310.019531 280.121094 309.917969 L 280.121094 308.925781 C 280.414062 309.082031 280.71875 309.203125 281.03125 309.28125 C 281.34375 309.359375 281.671875 309.398438 282.019531 309.398438 C 282.585938 309.398438 283.03125 309.25 283.359375 308.953125 C 283.6875 308.65625 283.851562 308.253906 283.851562 307.746094 C 283.851562 307.238281 283.6875 306.839844 283.359375 306.542969 C 283.03125 306.246094 282.585938 306.097656 282.019531 306.097656 C 281.757812 306.097656 281.496094 306.125 281.230469 306.183594 C 280.972656 306.242188 280.703125 306.335938 280.429688 306.457031 Z M 280.429688 302.796875 "/>
<path style="fill:none;stroke-width:0.8;stroke-linecap:butt;stroke-linejoin:round;stroke:rgb(0%,0%,0%);stroke-opacity:1;stroke-miterlimit:4;" d="M 318.546875 50.111725 L 318.546875 46.611725 " transform="matrix(1,0,0,-1,0,345.600006)"/>
<path style=" stroke:none;fill-rule:nonzero;fill:rgb(0%,0%,0%);fill-opacity:1;" d="M 311.675781 302.796875 L 315.546875 302.796875 L 315.546875 303.628906 L 312.578125 303.628906 L 312.578125 305.414062 C 312.722656 305.363281 312.863281 305.328125 313.007812 305.304688 C 313.148438 305.28125 313.292969 305.269531 313.4375 305.269531 C 314.25 305.269531 314.894531 305.492188 315.371094 305.9375 C 315.847656 306.382812 316.085938 306.984375 316.085938 307.746094 C 316.085938 308.53125 315.839844 309.140625 315.351562 309.578125 C 314.863281 310.011719 314.175781 310.230469 313.285156 310.230469 C 312.980469 310.230469 312.667969 310.203125 312.351562 310.152344 C 312.035156 310.097656 311.707031 310.019531 311.367188 309.917969 L 311.367188 308.925781 C 311.660156 309.082031 311.960938 309.203125 312.273438 309.28125 C 312.585938 309.359375 312.917969 309.398438 313.265625 309.398438 C 313.828125 309.398438 314.273438 309.25 314.601562 308.953125 C 314.933594 308.65625 315.097656 308.253906 315.097656 307.746094 C 315.097656 307.238281 314.933594 306.839844 314.601562 306.542969 C 314.273438 306.246094 313.828125 306.097656 313.265625 306.097656 C 313.003906 306.097656 312.738281 306.125 312.476562 306.183594 C 312.214844 306.242188 311.949219 306.335938 311.675781 306.457031 Z M 311.675781 302.796875 "/>
<path style=" stroke:none;fill-rule:nonzero;fill:rgb(0%,0%,0%);fill-opacity:1;" d="M 318.027344 308.847656 L 319.058594 308.847656 L 319.058594 310.085938 L 318.027344 310.085938 Z M 318.027344 308.847656 "/>
<path style=" stroke:none;fill-rule:nonzero;fill:rgb(0%,0%,0%);fill-opacity:1;" d="M 323.316406 303.445312 C 322.808594 303.445312 322.425781 303.695312 322.167969 304.195312 C 321.914062 304.695312 321.785156 305.445312 321.785156 306.449219 C 321.785156 307.449219 321.914062 308.199219 322.167969 308.699219 C 322.425781 309.199219 322.808594 309.449219 323.316406 309.449219 C 323.828125 309.449219 324.210938 309.199219 324.464844 308.699219 C 324.722656 308.199219 324.847656 307.449219 324.847656 306.449219 C 324.847656 305.445312 324.722656 304.695312 324.464844 304.195312 C 324.210938 303.695312 323.828125 303.445312 323.316406 303.445312 M 323.316406 302.664062 C 324.132812 302.664062 324.757812 302.988281 325.1875 303.636719 C 325.621094 304.28125 325.835938 305.21875 325.835938 306.449219 C 325.835938 307.675781 325.621094 308.613281 325.1875 309.261719 C 324.757812 309.90625 324.132812 310.230469 323.316406 310.230469 C 322.5 310.230469 321.875 309.90625 321.441406 309.261719 C 321.011719 308.613281 320.796875 307.675781 320.796875 306.449219 C 320.796875 305.21875 321.011719 304.28125 321.441406 303.636719 C 321.875 302.988281 322.5 302.664062 323.316406 302.664062 "/>
<path style="fill:none;stroke-width:0.8;stroke-linecap:butt;stroke-linejoin:round;stroke:rgb(0%,0%,0%);stroke-opacity:1;stroke-miterlimit:4;" d="M 359.332031 50.111725 L 359.332031 46.611725 " transform="matrix(1,0,0,-1,0,345.600006)"/>
<path style=" stroke:none;fill-rule:nonzero;fill:rgb(0%,0%,0%);fill-opacity:1;" d="M 352.203125 302.796875 L 356.890625 302.796875 L 356.890625 303.214844 L 354.242188 310.085938 L 353.210938 310.085938 L 355.703125 303.628906 L 352.203125 303.628906 Z M 352.203125 302.796875 "/>
<path style=" stroke:none;fill-rule:nonzero;fill:rgb(0%,0%,0%);fill-opacity:1;" d="M 358.8125 308.847656 L 359.84375 308.847656 L 359.84375 310.085938 L 358.8125 310.085938 Z M 358.8125 308.847656 "/>
<path style=" stroke:none;fill-rule:nonzero;fill:rgb(0%,0%,0%);fill-opacity:1;" d="M 362.003906 302.796875 L 365.875 302.796875 L 365.875 303.628906 L 362.90625 303.628906 L 362.90625 305.414062 C 363.046875 305.363281 363.191406 305.328125 363.332031 305.304688 C 363.476562 305.28125 363.621094 305.269531 363.765625 305.269531 C 364.578125 305.269531 365.222656 305.492188 365.699219 305.9375 C 366.171875 306.382812 366.410156 306.984375 366.410156 307.746094 C 366.410156 308.53125 366.167969 309.140625 365.679688 309.578125 C 365.191406 310.011719 364.5 310.230469 363.613281 310.230469 C 363.308594 310.230469 362.996094 310.203125 362.675781 310.152344 C 362.359375 310.097656 362.03125 310.019531 361.695312 309.917969 L 361.695312 308.925781 C 361.988281 309.082031 362.289062 309.203125 362.601562 309.28125 C 362.914062 309.359375 363.246094 309.398438 363.59375 309.398438 C 364.15625 309.398438 364.601562 309.25 364.929688 308.953125 C 365.257812 308.65625 365.425781 308.253906 365.425781 307.746094 C 365.425781 307.238281 365.257812 306.839844 364.929688 306.542969 C 364.601562 306.246094 364.15625 306.097656 363.59375 306.097656 C 363.328125 306.097656 363.066406 306.125 362.804688 306.183594 C 362.542969 306.242188 362.273438 306.335938 362.003906 306.457031 Z M 362.003906 302.796875 "/>
<path style="fill:none;stroke-width:0.8;stroke-linecap:butt;stroke-linejoin:round;stroke:rgb(0%,0%,0%);stroke-opacity:1;stroke-miterlimit:4;" d="M 400.117188 50.111725 L 400.117188 46.611725 " transform="matrix(1,0,0,-1,0,345.600006)"/>
<path style=" stroke:none;fill-rule:nonzero;fill:rgb(0%,0%,0%);fill-opacity:1;" d="M 390.226562 309.257812 L 391.835938 309.257812 L 391.835938 303.695312 L 390.085938 304.046875 L 390.085938 303.148438 L 391.828125 302.796875 L 392.8125 302.796875 L 392.8125 309.257812 L 394.425781 309.257812 L 394.425781 310.085938 L 390.226562 310.085938 Z M 390.226562 309.257812 "/>
<path style=" stroke:none;fill-rule:nonzero;fill:rgb(0%,0%,0%);fill-opacity:1;" d="M 398.527344 303.445312 C 398.019531 303.445312 397.636719 303.695312 397.382812 304.195312 C 397.125 304.695312 397 305.445312 397 306.449219 C 397 307.449219 397.125 308.199219 397.382812 308.699219 C 397.636719 309.199219 398.019531 309.449219 398.527344 309.449219 C 399.039062 309.449219 399.421875 309.199219 399.675781 308.699219 C 399.933594 308.199219 400.0625 307.449219 400.0625 306.449219 C 400.0625 305.445312 399.933594 304.695312 399.675781 304.195312 C 399.421875 303.695312 399.039062 303.445312 398.527344 303.445312 M 398.527344 302.664062 C 399.34375 302.664062 399.96875 302.988281 400.398438 303.636719 C 400.832031 304.28125 401.046875 305.21875 401.046875 306.449219 C 401.046875 307.675781 400.832031 308.613281 400.398438 309.261719 C 399.96875 309.90625 399.34375 310.230469 398.527344 310.230469 C 397.710938 310.230469 397.085938 309.90625 396.65625 309.261719 C 396.222656 308.613281 396.007812 307.675781 396.007812 306.449219 C 396.007812 305.21875 396.222656 304.28125 396.65625 303.636719 C 397.085938 302.988281 397.710938 302.664062 398.527344 302.664062 "/>
<path style=" stroke:none;fill-rule:nonzero;fill:rgb(0%,0%,0%);fill-opacity:1;" d="M 402.777344 308.847656 L 403.808594 308.847656 L 403.808594 310.085938 L 402.777344 310.085938 Z M 402.777344 308.847656 "/>
<path style=" stroke:none;fill-rule:nonzero;fill:rgb(0%,0%,0%);fill-opacity:1;" d="M 408.066406 303.445312 C 407.558594 303.445312 407.179688 303.695312 406.921875 304.195312 C 406.667969 304.695312 406.539062 305.445312 406.539062 306.449219 C 406.539062 307.449219 406.667969 308.199219 406.921875 308.699219 C 407.179688 309.199219 407.558594 309.449219 408.066406 309.449219 C 408.578125 309.449219 408.960938 309.199219 409.21875 308.699219 C 409.472656 308.199219 409.601562 307.449219 409.601562 306.449219 C 409.601562 305.445312 409.472656 304.695312 409.21875 304.195312 C 408.960938 303.695312 408.578125 303.445312 408.066406 303.445312 M 408.066406 302.664062 C 408.886719 302.664062 409.507812 302.988281 409.941406 303.636719 C 410.371094 304.28125 410.585938 305.21875 410.585938 306.449219 C 410.585938 307.675781 410.371094 308.613281 409.941406 309.261719 C 409.507812 309.90625 408.886719 310.230469 408.066406 310.230469 C 407.25 310.230469 406.625 309.90625 406.195312 309.261719 C 405.765625 308.613281 405.546875 307.675781 405.546875 306.449219 C 405.546875 305.21875 405.765625 304.28125 406.195312 303.636719 C 406.625 302.988281 407.25 302.664062 408.066406 302.664062 "/>
<path style="fill:none;stroke-width:0.8;stroke-linecap:butt;stroke-linejoin:round;stroke:rgb(0%,0%,0%);stroke-opacity:1;stroke-miterlimit:4;" d="M 236.976562 50.111725 L 233.476562 50.111725 " transform="matrix(1,0,0,-1,0,345.600006)"/>
<path style="fill:none;stroke-width:0.8;stroke-linecap:butt;stroke-linejoin:round;stroke:rgb(0%,0%,0%);stroke-opacity:1;stroke-miterlimit:4;" d="M 236.976562 98.982819 L 233.476562 98.982819 " transform="matrix(1,0,0,-1,0,345.600006)"/>
<path style=" stroke:none;fill-rule:nonzero;fill:rgb(0%,0%,0%);fill-opacity:1;" d="M 225.53125 249.585938 L 228.972656 249.585938 L 228.972656 250.414062 L 224.347656 250.414062 L 224.347656 249.585938 C 224.71875 249.199219 225.230469 248.675781 225.875 248.027344 C 226.523438 247.371094 226.929688 246.949219 227.09375 246.761719 C 227.410156 246.40625 227.628906 246.105469 227.753906 245.863281 C 227.882812 245.617188 227.945312 245.375 227.945312 245.136719 C 227.945312 244.75 227.808594 244.433594 227.535156 244.191406 C 227.265625 243.945312 226.910156 243.824219 226.472656 243.824219 C 226.164062 243.824219 225.839844 243.875 225.496094 243.984375 C 225.152344 244.089844 224.785156 244.253906 224.394531 244.472656 L 224.394531 243.476562 C 224.792969 243.316406 225.164062 243.195312 225.507812 243.113281 C 225.851562 243.035156 226.167969 242.992188 226.457031 242.992188 C 227.210938 242.992188 227.8125 243.183594 228.261719 243.558594 C 228.710938 243.9375 228.933594 244.441406 228.933594 245.074219 C 228.933594 245.371094 228.878906 245.65625 228.765625 245.925781 C 228.65625 246.191406 228.449219 246.507812 228.152344 246.875 C 228.074219 246.96875 227.8125 247.242188 227.378906 247.691406 C 226.941406 248.144531 226.328125 248.773438 225.53125 249.585938 "/>
<path style="fill:none;stroke-width:0.8;stroke-linecap:butt;stroke-linejoin:round;stroke:rgb(0%,0%,0%);stroke-opacity:1;stroke-miterlimit:4;" d="M 236.976562 147.857819 L 233.476562 147.857819 " transform="matrix(1,0,0,-1,0,345.600006)"/>
<path style=" stroke:none;fill-rule:nonzero;fill:rgb(0%,0%,0%);fill-opacity:1;" d="M 227.394531 195.109375 L 224.902344 199.003906 L 227.394531 199.003906 Z M 227.132812 194.25 L 228.375 194.25 L 228.375 199.003906 L 229.414062 199.003906 L 229.414062 199.824219 L 228.375 199.824219 L 228.375 201.542969 L 227.394531 201.542969 L 227.394531 199.824219 L 224.101562 199.824219 L 224.101562 198.871094 Z M 227.132812 194.25 "/>
<path style="fill:none;stroke-width:0.8;stroke-linecap:butt;stroke-linejoin:round;stroke:rgb(0%,0%,0%);stroke-opacity:1;stroke-miterlimit:4;" d="M 236.976562 196.728912 L 233.476562 196.728912 " transform="matrix(1,0,0,-1,0,345.600006)"/>
<path style=" stroke:none;fill-rule:nonzero;fill:rgb(0%,0%,0%);fill-opacity:1;" d="M 226.914062 148.632812 C 226.472656 148.632812 226.121094 148.78125 225.863281 149.085938 C 225.601562 149.386719 225.472656 149.804688 225.472656 150.328125 C 225.472656 150.855469 225.601562 151.269531 225.863281 151.574219 C 226.121094 151.878906 226.472656 152.03125 226.914062 152.03125 C 227.359375 152.03125 227.707031 151.878906 227.964844 151.574219 C 228.226562 151.269531 228.355469 150.855469 228.355469 150.328125 C 228.355469 149.804688 228.226562 149.386719 227.964844 149.085938 C 227.707031 148.78125 227.359375 148.632812 226.914062 148.632812 M 228.871094 145.539062 L 228.871094 146.4375 C 228.625 146.320312 228.375 146.230469 228.121094 146.171875 C 227.871094 146.109375 227.621094 146.078125 227.371094 146.078125 C 226.722656 146.078125 226.222656 146.296875 225.878906 146.734375 C 225.539062 147.175781 225.34375 147.839844 225.292969 148.726562 C 225.484375 148.445312 225.726562 148.226562 226.015625 148.078125 C 226.304688 147.925781 226.625 147.851562 226.972656 147.851562 C 227.703125 147.851562 228.285156 148.074219 228.707031 148.515625 C 229.132812 148.960938 229.347656 149.566406 229.347656 150.328125 C 229.347656 151.078125 229.125 151.679688 228.683594 152.132812 C 228.238281 152.585938 227.648438 152.8125 226.914062 152.8125 C 226.070312 152.8125 225.425781 152.488281 224.980469 151.84375 C 224.535156 151.195312 224.3125 150.257812 224.3125 149.03125 C 224.3125 147.878906 224.585938 146.960938 225.132812 146.273438 C 225.679688 145.589844 226.414062 145.246094 227.332031 145.246094 C 227.582031 145.246094 227.832031 145.273438 228.082031 145.320312 C 228.335938 145.371094 228.597656 145.441406 228.871094 145.539062 "/>
<path style="fill:none;stroke-width:0.8;stroke-linecap:butt;stroke-linejoin:round;stroke:rgb(0%,0%,0%);stroke-opacity:1;stroke-miterlimit:4;" d="M 236.976562 245.603912 L 233.476562 245.603912 " transform="matrix(1,0,0,-1,0,345.600006)"/>
<path style=" stroke:none;fill-rule:nonzero;fill:rgb(0%,0%,0%);fill-opacity:1;" d="M 226.792969 100.332031 C 226.324219 100.332031 225.953125 100.460938 225.683594 100.710938 C 225.417969 100.960938 225.285156 101.304688 225.285156 101.746094 C 225.285156 102.183594 225.417969 102.53125 225.683594 102.78125 C 225.953125 103.03125 226.324219 103.15625 226.792969 103.15625 C 227.261719 103.15625 227.628906 103.03125 227.898438 102.777344 C 228.171875 102.527344 228.304688 102.179688 228.304688 101.746094 C 228.304688 101.304688 228.171875 100.960938 227.902344 100.710938 C 227.632812 100.460938 227.265625 100.332031 226.792969 100.332031 M 225.804688 99.914062 C 225.382812 99.8125 225.054688 99.613281 224.816406 99.324219 C 224.582031 99.035156 224.464844 98.679688 224.464844 98.261719 C 224.464844 97.679688 224.671875 97.222656 225.085938 96.882812 C 225.5 96.542969 226.070312 96.375 226.792969 96.375 C 227.515625 96.375 228.085938 96.542969 228.5 96.882812 C 228.914062 97.222656 229.121094 97.679688 229.121094 98.261719 C 229.121094 98.679688 229.003906 99.035156 228.765625 99.324219 C 228.53125 99.613281 228.203125 99.8125 227.785156 99.914062 C 228.257812 100.027344 228.628906 100.242188 228.894531 100.566406 C 229.160156 100.886719 229.292969 101.28125 229.292969 101.746094 C 229.292969 102.453125 229.074219 102.996094 228.644531 103.371094 C 228.214844 103.75 227.59375 103.9375 226.792969 103.9375 C 225.988281 103.9375 225.371094 103.75 224.9375 103.371094 C 224.507812 102.996094 224.292969 102.453125 224.292969 101.746094 C 224.292969 101.28125 224.425781 100.886719 224.691406 100.566406 C 224.960938 100.242188 225.332031 100.027344 225.804688 99.914062 M 225.445312 98.355469 C 225.445312 98.734375 225.5625 99.027344 225.796875 99.238281 C 226.035156 99.453125 226.367188 99.558594 226.792969 99.558594 C 227.214844 99.558594 227.546875 99.453125 227.785156 99.238281 C 228.023438 99.027344 228.144531 98.734375 228.144531 98.355469 C 228.144531 97.980469 228.023438 97.683594 227.785156 97.472656 C 227.546875 97.261719 227.214844 97.15625 226.792969 97.15625 C 226.367188 97.15625 226.035156 97.261719 225.796875 97.472656 C 225.5625 97.683594 225.445312 97.980469 225.445312 98.355469 "/>
<path style="fill:none;stroke-width:0.8;stroke-linecap:butt;stroke-linejoin:round;stroke:rgb(0%,0%,0%);stroke-opacity:1;stroke-miterlimit:4;" d="M 236.976562 294.475006 L 233.476562 294.475006 " transform="matrix(1,0,0,-1,0,345.600006)"/>
<path style=" stroke:none;fill-rule:nonzero;fill:rgb(0%,0%,0%);fill-opacity:1;" d="M 218.492188 54.09375 L 220.101562 54.09375 L 220.101562 48.53125 L 218.347656 48.882812 L 218.347656 47.984375 L 220.09375 47.632812 L 221.078125 47.632812 L 221.078125 54.09375 L 222.691406 54.09375 L 222.691406 54.921875 L 218.492188 54.921875 Z M 218.492188 54.09375 "/>
<path style=" stroke:none;fill-rule:nonzero;fill:rgb(0%,0%,0%);fill-opacity:1;" d="M 226.792969 48.28125 C 226.285156 48.28125 225.902344 48.53125 225.644531 49.03125 C 225.390625 49.53125 225.261719 50.28125 225.261719 51.285156 C 225.261719 52.285156 225.390625 53.035156 225.644531 53.535156 C 225.902344 54.035156 226.285156 54.285156 226.792969 54.285156 C 227.300781 54.285156 227.6875 54.035156 227.941406 53.535156 C 228.199219 53.035156 228.324219 52.285156 228.324219 51.285156 C 228.324219 50.28125 228.199219 49.53125 227.941406 49.03125 C 227.6875 48.53125 227.300781 48.28125 226.792969 48.28125 M 226.792969 47.5 C 227.609375 47.5 228.234375 47.824219 228.664062 48.472656 C 229.097656 49.117188 229.3125 50.054688 229.3125 51.285156 C 229.3125 52.511719 229.097656 53.449219 228.664062 54.097656 C 228.234375 54.742188 227.609375 55.066406 226.792969 55.066406 C 225.972656 55.066406 225.351562 54.742188 224.917969 54.097656 C 224.488281 53.449219 224.273438 52.511719 224.273438 51.285156 C 224.273438 50.054688 224.488281 49.117188 224.917969 48.472656 C 225.351562 47.824219 225.972656 47.5 226.792969 47.5 "/>
<g clip-path="url(#clip1)" clip-rule="nonzero">
<path style="fill:none;stroke-width:1.5;stroke-linecap:square;stroke-linejoin:round;stroke:rgb(12.156677%,46.665955%,70.587158%);stroke-opacity:1;stroke-miterlimit:4;" d="M 73.832031 50.511719 L 236.976562 50.511719 L 398.488281 292.433594 " transform="matrix(1,0,0,-1,0,346)"/>
</g>
<path style="fill:none;stroke-width:0.8;stroke-linecap:square;stroke-linejoin:miter;stroke:rgb(0%,0%,0%);stroke-opacity:1;stroke-miterlimit:4;" d="M 236.976562 38.014069 L 236.976562 304.12735 " transform="matrix(1,0,0,-1,0,345.600006)"/>
<path style="fill:none;stroke-width:0.8;stroke-linecap:square;stroke-linejoin:miter;stroke:rgb(0%,0%,0%);stroke-opacity:1;stroke-miterlimit:4;" d="M 57.601562 50.111725 L 414.71875 50.111725 " transform="matrix(1,0,0,-1,0,345.600006)"/>
</g>
</svg>
